<?xml version="1.0" encoding="iso-8859-1"?>
<!-- Generator: Adobe Illustrator 19.0.0, SVG Export Plug-In . SVG Version: 6.00 Build 0)  -->
<svg version="1.1" id="Layer_1" xmlns="http://www.w3.org/2000/svg" xmlns:xlink="http://www.w3.org/1999/xlink" x="0px" y="0px"
	 viewBox="0 0 512 512" style="enable-background:new 0 0 512 512;" xml:space="preserve">
<g>
	<path style="fill:#4C1B27;" d="M256,427.587c-94.106,0-170.667-76.561-170.667-170.667S161.894,86.254,256,86.254
		s170.667,76.561,170.667,170.667S350.106,427.587,256,427.587z M256,114.698c-78.421,0-142.222,63.801-142.222,142.222
		S177.579,399.142,256,399.142s142.222-63.801,142.222-142.222S334.421,114.698,256,114.698z"/>
	<path style="fill:#4C1B27;" d="M426.667,142.222c-31.369,0-56.889-25.52-56.889-56.889s25.52-56.889,56.889-56.889
		s56.889,25.52,56.889,56.889S458.035,142.222,426.667,142.222z M426.667,56.889c-15.684,0-28.444,12.76-28.444,28.444
		s12.76,28.444,28.444,28.444c15.684,0,28.444-12.76,28.444-28.444S442.351,56.889,426.667,56.889z"/>
</g>
<circle style="fill:#D46366;" cx="256" cy="256" r="70.554"/>
<g>
	<path style="fill:#4C1B27;" d="M256,340.776c-46.746,0-84.776-38.03-84.776-84.776s38.03-84.776,84.776-84.776
		s84.776,38.03,84.776,84.776S302.746,340.776,256,340.776z M256,199.669c-31.061,0-56.331,25.27-56.331,56.331
		s25.27,56.331,56.331,56.331s56.331-25.27,56.331-56.331S287.061,199.669,256,199.669z"/>
	<path style="fill:#4C1B27;" d="M30.586,357.803c-5.695,0-11.071-3.445-13.259-9.072C5.83,319.158,0,287.959,0,256
		C0,114.842,114.842,0,256,0c31.969,0,63.168,5.831,92.732,17.33c7.32,2.847,10.947,11.089,8.1,18.411
		c-2.846,7.32-11.089,10.945-18.411,8.1C312.156,33.624,284.427,28.444,256,28.444C130.526,28.444,28.444,130.526,28.444,256
		c0,28.417,5.18,56.149,15.394,82.423c2.846,7.32-0.781,15.562-8.102,18.409C34.044,357.49,32.3,357.803,30.586,357.803z"/>
	<path style="fill:#4C1B27;" d="M256,512c-31.959,0-63.158-5.83-92.73-17.328c-7.32-2.846-10.948-11.088-8.102-18.409
		c2.846-7.32,11.092-10.948,18.409-8.102c26.274,10.216,54.006,15.396,82.423,15.396c125.474,0,227.556-102.081,227.556-227.556
		c0-28.427-5.18-56.156-15.394-82.421c-2.847-7.32,0.779-15.563,8.1-18.411c7.319-2.849,15.563,0.779,18.411,8.1
		C506.169,192.832,512,224.031,512,256C512,397.158,397.158,512,256,512z"/>
	<path style="fill:#4C1B27;" d="M85.333,483.556c-31.369,0-56.889-25.52-56.889-56.889s25.52-56.889,56.889-56.889
		s56.889,25.52,56.889,56.889S116.702,483.556,85.333,483.556z M85.333,398.222c-15.684,0-28.444,12.76-28.444,28.444
		c0,15.684,12.76,28.444,28.444,28.444s28.444-12.76,28.444-28.444C113.778,410.982,101.018,398.222,85.333,398.222z"/>
</g>
<circle style="fill:#D46366;" cx="405.333" cy="448" r="35.556"/>
<path style="fill:#4C1B27;" d="M405.333,497.778c-27.447,0-49.778-22.33-49.778-49.778s22.33-49.778,49.778-49.778
	s49.778,22.33,49.778,49.778S432.781,497.778,405.333,497.778z M405.333,426.667C393.57,426.667,384,436.237,384,448
	c0,11.763,9.57,21.333,21.333,21.333s21.333-9.57,21.333-21.333C426.667,436.237,417.097,426.667,405.333,426.667z"/>
<g>
</g>
<g>
</g>
<g>
</g>
<g>
</g>
<g>
</g>
<g>
</g>
<g>
</g>
<g>
</g>
<g>
</g>
<g>
</g>
<g>
</g>
<g>
</g>
<g>
</g>
<g>
</g>
<g>
</g>
</svg>
